<?xml version="1.0" encoding="UTF-8" standalone="no"?>
<svg width="33px" height="32px" viewBox="0 0 33 32" version="1.1" xmlns="http://www.w3.org/2000/svg" xmlns:xlink="http://www.w3.org/1999/xlink" xmlns:sketch="http://www.bohemiancoding.com/sketch/ns">
    <!-- Generator: Sketch 3.0.4 (8053) - http://www.bohemiancoding.com/sketch -->
    <title>Fill 50</title>
    <desc>Created with Sketch.</desc>
    <defs></defs>
    <g id="Welcome" stroke="none" stroke-width="1" fill="none" fill-rule="evenodd" sketch:type="MSPage">
        <g id="Desktop-HD" sketch:type="MSArtboardGroup" transform="translate(-828.000000, -484.000000)" fill="#FFFFFF">
            <g id="content" sketch:type="MSLayerGroup" transform="translate(340.000000, 250.000000)">
                <g id="button:github" transform="translate(199.000000, 212.000000)" sketch:type="MSShapeGroup">
                    <path d="M305.288,22 C296.294,22 289,29.293 289,38.29 C289,45.487 293.667,51.592 300.14,53.746 C300.955,53.896 301.252,53.393 301.252,52.961 C301.252,52.574 301.238,51.55 301.23,50.191 C296.699,51.175 295.743,48.007 295.743,48.007 C295.002,46.125 293.934,45.624 293.934,45.624 C292.455,44.614 294.046,44.634 294.046,44.634 C295.681,44.749 296.541,46.313 296.541,46.313 C297.994,48.802 300.354,48.083 301.282,47.666 C301.43,46.614 301.851,45.896 302.316,45.489 C298.699,45.078 294.896,43.68 294.896,37.438 C294.896,35.66 295.531,34.205 296.573,33.067 C296.405,32.655 295.846,30.998 296.733,28.756 C296.733,28.756 298.1,28.318 301.212,30.426 C302.511,30.064 303.905,29.884 305.29,29.877 C306.674,29.884 308.067,30.064 309.368,30.426 C312.478,28.318 313.843,28.756 313.843,28.756 C314.732,30.998 314.173,32.655 314.006,33.067 C315.05,34.205 315.68,35.66 315.68,37.438 C315.68,43.696 311.871,45.073 308.243,45.476 C308.827,45.979 309.348,46.973 309.348,48.492 C309.348,50.67 309.328,52.427 309.328,52.961 C309.328,53.397 309.622,53.904 310.448,53.745 C316.916,51.586 321.579,45.485 321.579,38.29 C321.579,29.293 314.285,22 305.288,22" id="Fill-50"></path>
                </g>
            </g>
        </g>
    </g>
</svg>