<?xml version="1.0" encoding="UTF-8" standalone="no"?>
<svg width="151px" height="54px" viewBox="0 0 151 54" version="1.1" xmlns="http://www.w3.org/2000/svg" xmlns:xlink="http://www.w3.org/1999/xlink" xmlns:sketch="http://www.bohemiancoding.com/sketch/ns">
    <!-- Generator: Sketch 3.0.4 (8053) - http://www.bohemiancoding.com/sketch -->
    <title>logo-lig</title>
    <desc>Created with Sketch.</desc>
    <defs></defs>
    <g id="Welcome" stroke="none" stroke-width="1" fill="none" fill-rule="evenodd" sketch:type="MSPage">
        <g id="Desktop-HD" sketch:type="MSArtboardGroup" transform="translate(-648.000000, -943.000000)" fill="#FFFFFF">
            <g id="bottom" sketch:type="MSLayerGroup" transform="translate(380.000000, 820.000000)">
                <g id="logo-lig" transform="translate(268.000000, 124.000000)" sketch:type="MSShapeGroup">
                    <path d="M33.76975,14.94 L33.76975,13.96 C33.76975,13.633 33.66075,13.46975 33.33375,13.46975 C32.898,13.46975 31.53675,13.633 28.107,13.633 C24.8945,13.633 23.3155,13.46975 22.7705,13.46975 C22.4985,13.46975 22.33525,13.5785 22.33525,13.90525 L22.33525,14.99425 C22.33525,15.32125 22.4985,15.42975 22.88,15.42975 L25.05775,15.42975 C25.60225,15.42975 25.87475,15.7025 25.9285,16.68225 L25.9285,29.641 C25.9285,32.85325 25.22125,33.7245 21.3555,33.7245 L8.385,33.7245 L8.385,28.8795 C8.385,22.454 8.385,3.9435 8.4945,3.3445 C8.4945,2.58225 8.603,1.92875 9.47425,1.92875 L11.925,1.92875 C12.36025,1.92875 12.46875,1.82 12.46875,1.49275 L12.46875,0.51325 C12.46875,0.18625 12.36025,-0.03125 12.14225,-0.03125 C11.8155,-0.03125 10.18175,0.132 6.643,0.132 C2.9945,0.132 0.87175,-0.03125 0.436,-0.03125 C0.1095,-0.03125 0,0.07775 0,0.3495 L0,1.5475 C0,1.82 0.1095,1.92875 0.54475,1.92875 L3.376,1.92875 C4.19275,1.92875 4.41075,2.473 4.46525,3.8345 L4.46525,33.7245 L0.81675,33.7245 C0.54475,33.7245 0.3815,33.94275 0.436,34.269 L0.65325,35.957 C0.70825,36.28375 0.87175,36.3385 1.30725,36.3385 L4.46525,36.3385 L4.46525,37.264 C4.46525,42.65425 6.20775,45.92175 8.549,48.4805 C11.489,51.74775 15.68175,53 18.404,53 C21.399,53 23.84875,51.14875 23.84875,49.18775 C23.90325,47.392 22.48775,46.52 21.29025,46.52 C20.038,46.52 19.11175,47.17375 17.9685,48.64425 C17.261,49.624 16.498,50.277 15.192,50.277 C13.7215,50.277 12.197,49.678 11.05325,48.37125 C8.4945,45.595 8.385,41.12925 8.385,37.42775 L8.385,36.3385 L22.60775,36.3385 C24.6765,36.3385 26.69075,36.719 28.59675,37.15525 C29.08725,37.264 29.359,37.3725 29.686,37.3725 C30.0675,37.3725 30.0675,37.1005 30.01225,36.719 C29.8495,35.7945 29.8495,32.36325 29.8495,27.46275 L29.8495,21.5285 C29.8495,19.405 29.8495,17.4445 29.9035,16.84575 C29.9035,15.86575 30.12125,15.42975 30.938,15.42975 L33.27925,15.42975 C33.66075,15.42975 33.76975,15.266 33.76975,14.94" id="Fill-1"></path>
                    <path d="M27.7675,8.98775 C29.853,8.98775 30.79125,7.4755 30.79125,6.12025 C30.79125,4.97375 29.905,3.566 28.0805,3.566 C25.995,3.566 24.9005,4.97375 24.9005,6.2765 C24.9005,7.945 26.62075,8.98775 27.7675,8.98775" id="Fill-2"></path>
                    <path d="M66.20825,30.8535 C66.20825,32.261 63.44575,34.08525 61.93425,34.08525 C60.37025,34.08525 59.2235,33.14625 59.2235,31.21825 C59.2235,26.89125 64.332,25.84875 66.20825,24.441 L66.20825,30.8535 L66.20825,30.8535 Z M43.1085,28.455 C41.85725,28.455 40.919,28.03775 39.981,27.152 C38.886,26.00525 38.3125,24.389 38.3125,22.61675 C38.3125,20.6355 38.52075,18.23775 40.189,16.46525 C41.44,15.2145 42.69175,15.0055 43.8905,15.0055 C44.6725,15.0055 45.71475,15.475 46.3925,16.15275 C47.33075,17.19525 47.79975,18.5505 47.79975,20.844 C47.79975,24.12825 46.6535,28.455 43.1085,28.455 L43.1085,28.455 Z M40.08475,38.3595 L45.0895,37.9945 C50.3025,37.62975 52.648,39.975 52.648,43.0515 C52.909,47.065 47.1745,48.42125 45.24575,48.42125 C41.5445,48.42125 39.668,48.15975 37.9475,46.96075 C36.905,46.23125 35.915,44.66775 35.915,43.36425 C35.915,40.549 38.46875,38.77675 40.08475,38.3595 L40.08475,38.3595 Z M113.26825,33.35525 C113.21625,33.14625 113.06,33.0425 112.64275,33.14625 C112.017,33.30275 111.23525,33.30275 110.92225,33.30275 C110.29675,33.30275 109.72425,33.095 109.56675,31.4785 C109.46275,30.38375 109.46275,27.8295 109.46275,25.32775 L109.46275,21.47 C109.46275,16.361 109.72425,15.0055 109.77575,14.5365 C109.8275,14.276 109.61875,14.01525 109.3065,14.01525 C109.15,14.01525 108.94125,14.0675 108.68025,14.0675 C108.42,14.11975 108.15925,14.17175 107.7945,14.17175 L102.9465,14.17175 C102.4255,14.17175 102.3215,14.224 102.3215,14.6405 L102.3215,15.52675 C102.3215,15.78775 102.58175,15.892 103.46825,15.892 C104.771,15.99625 105.605,16.257 105.7095,17.7165 L105.7095,30.1235 C105.7095,30.59275 105.39675,31.27025 105.18775,31.5305 C104.198,32.7815 102.11275,34.13725 100.705,34.13725 C99.2975,34.13725 97.8375,34.03275 96.5345,32.1565 C94.866,29.75875 95.38775,26.42225 95.38775,24.337 L95.38775,20.6355 C95.38775,17.56025 95.5435,15.10975 95.596,14.6405 C95.649,14.276 95.38775,14.01525 95.0225,14.01525 C94.866,14.01525 94.65775,14.0675 94.44925,14.0675 C94.241,14.11975 94.032,14.17175 93.71875,14.17175 L89.08025,14.17175 C88.94775,14.17175 88.847,14.1815 88.767,14.20025 L81.8,14.20025 L82.21675,9.03925 C82.6345,3.722 79.08925,0.073 71.4785,0.073 C64.4405,0.073 60.53125,3.61775 60.53125,7.9965 C60.53125,10.134 61.67775,12.0105 64.024,13.47025 L64.024,13.563 C61.99175,13.65725 60.31225,14.195 58.33725,15.37075 C58.15,15.48025 57.97,15.59725 57.79375,15.71725 C56.598,13.6015 54.37875,12.41075 51.99375,12.065 C50.8145,11.8945 49.1215,12.037 48.06975,12.61525 C47.485,12.93675 46.744,13.399 46.23375,13.95975 C45.45275,13.70975 44.55375,13.54625 43.52575,13.54625 C37.635,13.54625 34.6115,17.7165 34.6115,21.10475 C34.6115,25.74475 37.4265,28.14225 39.4595,29.02875 L39.4595,29.1325 C37.635,29.81075 34.7675,31.583 34.7675,34.08525 C34.7675,35.64875 36.071,37.265 38.2605,37.73425 L38.2605,37.9425 C35.75825,39.03775 32.787,41.27975 32.787,44.198 C32.787,45.9185 33.56875,47.274 35.44525,48.42125 C37.9475,49.82825 40.919,50.08875 43.42125,50.08875 C47.85225,50.08875 50.98,48.6285 52.335,47.63925 C54.9415,45.71 55.82775,43.677 55.82775,41.2265 C55.776,39.975 55.51525,37.891 53.27375,36.22275 C51.18825,34.607 48.58175,34.13725 44.307,34.3455 C40.81425,34.5545 38.20825,34.71025 38.20825,32.57375 C38.20825,31.11375 39.9285,30.071 40.971,29.65375 C41.753,29.86275 42.4825,29.9145 43.63,29.9145 C45.35,29.9145 48.3215,28.81975 49.67675,27.3085 C51.032,25.69275 51.6055,23.711 51.6055,21.6785 C51.6055,19.90575 51.24075,18.75925 50.8235,17.7165 L50.09375,16.5695 C49.95275,16.40025 49.69225,16.09925 49.3155,15.7525 C49.8865,15.04125 50.9855,14.24875 52.995,14.48025 C55.47825,14.76625 56.689,15.4685 56.85525,16.4465 C55.554,17.6065 54.74,19.02575 54.74,20.27075 C54.74,21.47 55.15725,21.93875 55.99125,21.93875 C57.52175,21.93875 58.27475,21.3485 58.58025,20.3445 C58.706,20.004 58.7745,19.629 58.7745,19.24525 C58.7745,19.05575 58.75975,18.859 58.73875,18.66075 C58.7315,18.58175 58.72225,18.5035 58.71175,18.42675 C58.70825,18.4015 58.70475,18.37675 58.701,18.3515 C58.6025,17.6795 58.45075,17.09325 59.015,16.5695 C59.7445,15.892 61.36075,15.475 62.40325,15.475 C63.91475,15.475 64.95725,15.94425 65.53125,16.62175 C66.10425,17.2995 66.1565,18.65475 66.26075,19.541 L66.26075,22.877 C65.427,23.607 62.7155,24.85825 60.37025,25.9005 C56.25175,27.725 55.15725,29.81075 55.15725,32.209 C55.15725,35.49275 57.0335,36.5355 58.28475,36.5355 C59.43225,36.5355 60.37025,36.5355 61.36075,36.22275 C63.70625,35.44075 65.427,34.3455 66.52125,33.0425 L66.6255,33.0425 C67.09525,35.1795 68.45075,36.5355 70.327,36.5355 C72.985,36.5355 73.976,34.76275 74.39275,33.98075 C74.706,33.46025 74.6015,33.19875 74.445,33.0425 L73.924,32.62575 C73.7155,32.46925 73.611,32.57375 73.40225,32.834 C73.142,33.19875 72.41175,33.616 71.578,33.616 C70.64,33.616 70.014,32.67775 70.014,29.70675 L70.014,18.65475 C70.014,17.24725 69.9615,16.04825 68.86725,14.95375 C68.30575,14.43225 67.58675,13.88125 66.17025,13.6545 C64.4495,12.3015 63.24175,10.35275 63.24175,8.10075 C63.24175,3.983 66.995,2.0015 71.58275,2.0015 C76.16975,2.0015 79.24575,4.29525 79.1935,9.50825 C79.14175,12.47975 77.52525,14.617 74.86675,15.50325 C74.2415,15.712 73.92875,15.86825 73.92875,16.28525 C73.92875,16.70225 74.2415,16.9105 74.71075,16.9105 L77.8905,16.9105 C77.8385,19.1 77.7855,22.5925 77.7855,23.5315 L77.7855,24.6785 C77.7855,25.408 77.63,29.995 77.63,32.13325 C77.63,34.11275 80.13225,36.5635 82.687,36.5635 C85.814,36.5635 87.951,35.00025 88.47325,34.4785 C88.6285,34.3215 88.733,34.11275 88.5765,33.905 L88.31625,33.43625 C88.15925,33.2275 87.951,33.1755 87.69125,33.33125 C86.96075,33.8005 85.44925,34.00925 84.24975,34.00925 C83.3115,34.00925 81.53975,33.33125 81.53975,29.42175 L81.53975,24.20925 C81.53975,21.811 81.5915,19.3085 81.6955,16.9105 L91.1625,16.9105 C91.27175,16.9105 91.3545,16.89025 91.419,16.8545 C91.54475,17.116 91.6195,17.44675 91.6345,17.87275 L91.6345,23.91975 C91.6345,29.65375 91.5305,31.3745 93.6675,34.13725 C95.38775,36.37925 97.1075,36.5355 98.567,36.5355 C101.17475,36.5355 104.198,34.91925 105.657,32.886 L105.762,32.886 L106.1785,35.9095 C106.23,36.43125 106.4395,36.5355 106.64775,36.5355 C107.064,36.5355 107.37725,36.43125 107.6905,36.32625 L113.16375,34.502 C113.37225,34.45 113.47775,34.3455 113.42525,34.03275 L113.26825,33.35525 L113.26825,33.35525 Z" id="Fill-3"></path>
                    <g id="Group-7" transform="translate(114.500000, 13.250000)">
                        <path d="M13.991,-0.0165 C11.75,-0.0165 9.3,2.12075 7.736,4.5185 L7.52725,4.5185 L7.26675,0.92175 C7.26675,0.609 7.21425,0.29625 6.902,0.29625 C6.69325,0.29625 6.4855,0.3485 6.172,0.50475 L1.01175,3.16325 C0.69825,3.3195 0.595,3.424 0.595,3.6325 L0.595,3.94525 C0.595,4.1535 0.69825,4.206 1.01175,4.31025 L2.0015,4.83175 C3.461,5.6135 3.87825,6.13475 3.87825,8.79375 L3.87825,13.69375 C3.87825,16.40375 3.87825,18.2285 3.82625,19.94875 C3.82625,20.627 3.461,20.93975 2.6795,20.93975 L0.64575,20.93975 C0.17725,20.93975 0.07325,21.0435 0.07325,21.40875 L0.07325,22.29475 C0.07325,22.712 0.17725,22.8165 0.3855,22.8165 C0.69825,22.8165 2.8885,22.6595 6.12025,22.6595 C8.93525,22.6595 11.333,22.8165 11.64575,22.8165 C11.85425,22.8165 11.907,22.6595 11.907,22.34725 L11.907,21.40875 C11.907,21.0955 11.85425,20.93975 11.54175,20.93975 L9.09175,20.93975 C7.99675,20.93975 7.63225,20.418 7.63225,18.80225 L7.63225,7.85475 C7.63225,7.69875 7.841,6.76 8.15325,6.187 C9.03975,4.5185 10.39425,3.99725 11.22875,3.99725 C11.907,3.99725 12.532,4.1535 12.94875,4.41425 C13.366,4.62275 13.8875,4.83175 14.46025,4.83175 C15.399,4.83175 16.65025,3.78875 16.65025,2.27675 C16.65025,1.078 15.76375,-0.0165 13.991,-0.0165" id="Fill-4"></path>
                        <path d="M26.39825,1.85975 C29.787,1.85975 30.4125,5.3005 30.4125,6.49975 C30.4125,6.969 29.99525,7.2295 29.005,7.2295 L20.92425,7.2295 C21.91575,3.37175 24.105,1.85975 26.39825,1.85975 L26.39825,1.85975 Z M35.4175,16.821 L34.7395,16.45675 C34.58275,16.40375 34.375,16.50875 34.2695,16.717 C33.3845,18.4375 31.1425,20.26175 27.96175,20.26175 C23.79175,20.26175 20.56,16.40375 20.56,11.2955 C20.56,10.09625 20.612,9.26225 20.7165,8.79375 L33.5925,8.79375 C34.42625,8.79375 35.05225,8.68875 35.05225,7.95925 C35.05225,5.926 33.3845,0.29625 27.3885,0.29625 C24.782,0.29625 22.176,0.76525 19.935,3.059 C17.17175,5.82175 16.65025,9.3145 16.65025,11.348 C16.65025,14.99625 17.12,16.9255 18.94425,19.584 C20.87275,22.39875 24.15675,23.2855 27.12825,23.2855 C31.76775,23.2855 34.47925,19.6885 35.4175,17.6035 C35.67775,17.02925 35.573,16.8735 35.4175,16.821 L35.4175,16.821 Z" id="Fill-6"></path>
                    </g>
                    <path d="M63.84875,50.4845 C63.3815,50.4845 62.949,50.3965 62.55175,50.2205 C62.154,50.04425 61.80975,49.80675 61.519,49.50725 C61.228,49.20825 61.0005,48.85775 60.8365,48.456 C60.6725,48.05475 60.59075,47.63225 60.59075,47.18975 L60.59075,47.165 C60.59075,46.71425 60.6725,46.288 60.8365,45.8865 C61.0005,45.48475 61.228,45.1325 61.519,44.829 C61.80975,44.526 62.154,44.28625 62.55175,44.10975 C62.949,43.93375 63.3815,43.8455 63.84875,43.8455 C64.15175,43.8455 64.42675,43.87425 64.6725,43.93175 C64.9185,43.989 65.14375,44.069 65.34875,44.1715 C65.5535,44.274 65.74225,44.39475 65.91425,44.53425 C66.0865,44.6735 66.24625,44.821 66.39375,44.9765 L65.76675,45.64075 C65.5125,45.3785 65.236,45.153 64.937,44.96425 C64.6375,44.776 64.27075,44.68175 63.8365,44.68175 C63.51675,44.68175 63.2175,44.745 62.939,44.872 C62.66025,44.99925 62.41825,45.17325 62.2135,45.39475 C62.0085,45.616 61.84875,45.87625 61.73425,46.17525 C61.61925,46.4745 61.562,46.7965 61.562,47.14075 L61.562,47.165 C61.562,47.50925 61.62125,47.831 61.74025,48.13025 C61.859,48.4295 62.023,48.692 62.232,48.91725 C62.441,49.1425 62.687,49.31875 62.96975,49.44575 C63.2525,49.573 63.56175,49.6365 63.898,49.6365 C64.30775,49.6365 64.6705,49.54625 64.986,49.366 C65.3015,49.18575 65.58625,48.96025 65.8405,48.68975 L66.443,49.25525 C66.12325,49.616 65.7605,49.91125 65.35475,50.1405 C64.949,50.36975 64.447,50.4845 63.84875,50.4845" id="Fill-8" fill-opacity="0.350000024"></path>
                    <path d="M68.0045,43.98075 L68.951,43.98075 L68.951,45.64075 C69.06575,45.3785 69.20925,45.1365 69.38125,44.91525 C69.5535,44.69375 69.75025,44.5035 69.9715,44.3435 C70.19275,44.1835 70.4345,44.06275 70.697,43.98075 C70.959,43.899 71.242,43.862 71.54525,43.87 L71.54525,44.89075 L71.4715,44.89075 C71.12725,44.89075 70.8015,44.95225 70.494,45.075 C70.18675,45.198 69.918,45.38225 69.68875,45.62825 C69.45925,45.87425 69.27875,46.17975 69.14775,46.54425 C69.0165,46.909 68.951,47.329 68.951,47.8045 L68.951,50.33725 L68.0045,50.33725 L68.0045,43.98075" id="Fill-9" fill-opacity="0.350000024"></path>
                    <path d="M77.6435,46.77175 C77.61875,46.4865 77.55725,46.2155 77.459,45.959 C77.36075,45.70225 77.2275,45.476 77.0595,45.28025 C76.89125,45.08475 76.6865,44.93 76.44475,44.816 C76.20275,44.70175 75.92625,44.64475 75.61475,44.64475 C75.34425,44.64475 75.09025,44.69775 74.8525,44.8035 C74.61475,44.90975 74.40575,45.05825 74.2255,45.24975 C74.04525,45.4415 73.8955,45.6675 73.77675,45.9285 C73.65775,46.18925 73.582,46.47025 73.54925,46.77175 L77.6435,46.77175 L77.6435,46.77175 Z M73.54925,47.54625 C73.582,47.8825 73.664,48.18175 73.79525,48.44375 C73.92625,48.70625 74.09425,48.9275 74.29925,49.10775 C74.504,49.288 74.73375,49.4255 74.98775,49.5195 C75.24175,49.61375 75.50825,49.661 75.787,49.661 C76.2295,49.661 76.6085,49.579 76.92425,49.415 C77.2395,49.25125 77.5285,49.034 77.791,48.7635 L78.38125,49.292 C78.0615,49.65275 77.69675,49.942 77.287,50.159 C76.87675,50.376 76.36875,50.4845 75.76225,50.4845 C75.32775,50.4845 74.918,50.40475 74.53275,50.24475 C74.1475,50.08525 73.8115,49.85975 73.52475,49.56875 C73.23775,49.27775 73.01025,48.9275 72.84225,48.5175 C72.67425,48.10775 72.59025,47.657 72.59025,47.165 C72.59025,46.70625 72.666,46.27375 72.81775,45.868 C72.96925,45.4625 73.1805,45.11 73.451,44.81075 C73.7215,44.5115 74.043,44.276 74.416,44.10375 C74.789,43.93175 75.197,43.8455 75.63925,43.8455 C76.1065,43.8455 76.5245,43.93375 76.8935,44.10975 C77.26225,44.28625 77.5735,44.526 77.82775,44.829 C78.082,45.1325 78.2745,45.489 78.40575,45.89875 C78.53675,46.30875 78.6025,46.747 78.6025,47.21425 L78.6025,47.35575 C78.6025,47.40925 78.59825,47.4725 78.59025,47.54625 L73.54925,47.54625 L73.54925,47.54625 Z" id="Fill-10" fill-opacity="0.350000024"></path>
                    <path d="M82.34675,49.69775 C82.641,49.69775 82.91475,49.65725 83.16775,49.5755 C83.421,49.494 83.64375,49.37775 83.83575,49.22675 C84.02775,49.07575 84.17875,48.8965 84.28925,48.68825 C84.39925,48.4805 84.4545,48.25 84.4545,47.997 L84.4545,47.40975 C84.2175,47.3445 83.948,47.2835 83.64575,47.22625 C83.3435,47.16925 82.99625,47.14075 82.60425,47.14075 C82.016,47.14075 81.5605,47.25675 81.23775,47.4895 C80.915,47.722 80.75375,48.02975 80.75375,48.413 L80.75375,48.43775 C80.75375,48.63325 80.79675,48.81075 80.8825,48.96975 C80.96825,49.129 81.0845,49.2615 81.23175,49.3675 C81.37875,49.4735 81.54825,49.55525 81.74025,49.612 C81.93225,49.6695 82.1345,49.69775 82.34675,49.69775 L82.34675,49.69775 Z M82.1555,50.4725 C81.8605,50.4725 81.56925,50.4315 81.2825,50.34925 C80.9955,50.2675 80.7415,50.1425 80.52025,49.97425 C80.299,49.80675 80.12075,49.59925 79.9855,49.3535 C79.85025,49.10775 79.7825,48.82075 79.7825,48.493 L79.7825,48.46825 C79.7825,48.124 79.848,47.823 79.97925,47.56475 C80.11025,47.3065 80.29675,47.09125 80.53875,46.91925 C80.7805,46.747 81.06725,46.61625 81.39925,46.526 C81.73125,46.43575 82.098,46.39075 82.49975,46.39075 C82.9095,46.39075 83.26375,46.415 83.563,46.46425 C83.86225,46.5135 84.15525,46.579 84.44225,46.66125 L84.44225,46.4655 C84.44225,45.90375 84.27825,45.47825 83.9505,45.18925 C83.6225,44.9 83.15925,44.75525 82.56125,44.75525 C82.184,44.75525 81.842,44.7965 81.5345,44.8785 C81.22725,44.9605 80.926,45.071 80.631,45.21025 L80.348,44.43125 C80.70025,44.265 81.057,44.132 81.41775,44.032 C81.7785,43.93225 82.19225,43.88225 82.6595,43.88225 C83.56125,43.88225 84.2455,44.116 84.71275,44.58325 C85.1555,45.026 85.3765,45.649 85.3765,46.45225 L85.3765,50.33725 L84.44225,50.33725 L84.44225,49.3905 C84.22075,49.6775 83.92375,49.9295 83.551,50.1465 C83.17775,50.36375 82.71275,50.4725 82.1555,50.4725 L82.1555,50.4725 Z" id="Fill-11" fill-opacity="0.350000024"></path>
                    <path d="M89.50775,50.44775 C89.2535,50.44775 89.016,50.415 88.7945,50.34925 C88.57325,50.284 88.38275,50.1795 88.22275,50.036 C88.063,49.8925 87.938,49.706 87.848,49.4765 C87.75775,49.247 87.71275,48.9725 87.71275,48.65275 L87.71275,44.817 L86.8275,44.817 L86.8275,43.98075 L87.71275,43.98075 L87.71275,42.06275 L88.65925,42.06275 L88.65925,43.98075 L90.67575,43.98075 L90.67575,44.817 L88.65925,44.817 L88.65925,48.52025 C88.65925,48.9125 88.75775,49.1865 88.9545,49.34175 C89.15125,49.49725 89.40925,49.575 89.729,49.575 C89.893,49.575 90.0465,49.5595 90.19,49.52825 C90.33325,49.4975 90.487,49.44325 90.651,49.366 L90.651,50.17725 C90.487,50.2675 90.313,50.33525 90.1285,50.38025 C89.94425,50.425 89.73725,50.44775 89.50775,50.44775" id="Fill-12" fill-opacity="0.350000024"></path>
                    <path d="M92.4335,43.98075 L93.38025,43.98075 L93.38025,50.33725 L92.4335,50.33725 L92.4335,43.98075 Z M92.37225,41.5465 L93.454,41.5465 L93.454,42.5915 L92.37225,42.5915 L92.37225,41.5465 Z" id="Fill-13" fill-opacity="0.350000024"></path>
                    <path d="M94.954,43.98075 L95.999,43.98075 L98.13825,49.25525 L100.28975,43.98075 L101.31025,43.98075 L98.54375,50.38625 L97.708,50.38625 L94.954,43.98075" id="Fill-14" fill-opacity="0.350000024"></path>
                    <path d="M107.4575,46.77175 C107.43275,46.4865 107.37125,46.2155 107.273,45.959 C107.17475,45.70225 107.0415,45.476 106.8735,45.28025 C106.70525,45.08475 106.50025,44.93 106.25875,44.816 C106.01675,44.70175 105.74,44.64475 105.42875,44.64475 C105.15825,44.64475 104.90425,44.69775 104.6665,44.8035 C104.4285,44.90975 104.2195,45.05825 104.0395,45.24975 C103.859,45.4415 103.70925,45.6675 103.59075,45.9285 C103.47175,46.18925 103.39575,46.47025 103.36325,46.77175 L107.4575,46.77175 L107.4575,46.77175 Z M103.36325,47.54625 C103.39575,47.8825 103.478,48.18175 103.60925,48.44375 C103.74,48.70625 103.90825,48.9275 104.11325,49.10775 C104.318,49.288 104.5475,49.4255 104.80175,49.5195 C105.05575,49.61375 105.32225,49.661 105.601,49.661 C106.0435,49.661 106.4225,49.579 106.73825,49.415 C107.0535,49.25125 107.3425,49.034 107.60475,48.7635 L108.19525,49.292 C107.87525,49.65275 107.5105,49.942 107.101,50.159 C106.69075,50.376 106.18275,50.4845 105.57625,50.4845 C105.14175,50.4845 104.732,50.40475 104.34675,50.24475 C103.9615,50.08525 103.62525,49.85975 103.33875,49.56875 C103.05175,49.27775 102.824,48.9275 102.65625,48.5175 C102.48825,48.10775 102.40425,47.657 102.40425,47.165 C102.40425,46.70625 102.47975,46.27375 102.63175,45.868 C102.78325,45.4625 102.9945,45.11 103.265,44.81075 C103.53525,44.5115 103.857,44.276 104.23,44.10375 C104.603,43.93175 105.01075,43.8455 105.45325,43.8455 C105.9205,43.8455 106.3385,43.93375 106.7075,44.10975 C107.07625,44.28625 107.3875,44.526 107.64175,44.829 C107.89575,45.1325 108.0885,45.489 108.2195,45.89875 C108.35075,46.30875 108.4165,46.747 108.4165,47.21425 L108.4165,47.35575 C108.4165,47.40925 108.41225,47.4725 108.40425,47.54625 L103.36325,47.54625 L103.36325,47.54625 Z" id="Fill-15" fill-opacity="0.350000024"></path>
                    <path d="M116.56775,49.00925 C116.87075,49.00925 117.162,48.95825 117.4405,48.85575 C117.719,48.75325 117.96725,48.60575 118.1845,48.413 C118.4015,48.2205 118.57575,47.99325 118.707,47.73075 C118.838,47.4685 118.90375,47.1775 118.90375,46.85775 L118.90375,46.83325 C118.90375,46.50525 118.838,46.2105 118.707,45.948 C118.57575,45.68575 118.4015,45.4605 118.1845,45.27175 C117.96725,45.08325 117.719,44.938 117.4405,44.83525 C117.162,44.733 116.87075,44.68175 116.56775,44.68175 C116.26425,44.68175 115.97925,44.733 115.71325,44.83525 C115.44675,44.938 115.21325,45.08125 115.01225,45.26575 C114.8115,45.45 114.65375,45.67325 114.539,45.9355 C114.42425,46.198 114.36675,46.49325 114.36675,46.82075 L114.36675,46.8455 C114.36675,47.165 114.4265,47.45825 114.54525,47.7245 C114.664,47.991 114.82375,48.2185 115.02475,48.407 C115.2255,48.5955 115.459,48.74325 115.7255,48.8495 C115.99175,48.956 116.2725,49.00925 116.56775,49.00925 L116.56775,49.00925 Z M116.58,52.32875 C116.047,52.32875 115.539,52.25525 115.0555,52.10775 C114.57175,51.96 114.11675,51.73875 113.69075,51.4435 L114.121,50.706 C114.48975,50.96825 114.875,51.169 115.27675,51.30825 C115.67825,51.44775 116.1085,51.51725 116.56775,51.51725 C117.2725,51.51725 117.834,51.327 118.252,50.94575 C118.67,50.56475 118.879,50.00125 118.879,49.25525 L118.879,48.50525 C118.6005,48.874 118.26025,49.18975 117.8585,49.452 C117.457,49.71425 116.96525,49.8455 116.38325,49.8455 C115.998,49.8455 115.627,49.776 115.27075,49.6365 C114.914,49.497 114.59625,49.29825 114.31775,49.04 C114.039,48.782 113.8155,48.4705 113.6475,48.10575 C113.4795,47.741 113.39575,47.329 113.39575,46.87 L113.39575,46.8455 C113.39575,46.37825 113.4795,45.96025 113.6475,45.59125 C113.8155,45.22275 114.039,44.909 114.31775,44.651 C114.59625,44.3925 114.916,44.194 115.27675,44.05475 C115.63725,43.91525 116.00625,43.8455 116.38325,43.8455 C116.67825,43.8455 116.95075,43.8805 117.20075,43.95 C117.45075,44.01975 117.67625,44.112 117.877,44.22675 C118.07775,44.3415 118.26025,44.47675 118.42425,44.63225 C118.588,44.78825 118.7355,44.95225 118.86675,45.12425 L118.86675,43.98075 L119.8135,43.98075 L119.8135,49.23075 C119.8135,49.7225 119.74375,50.15475 119.60425,50.52775 C119.465,50.90075 119.26425,51.21825 119.002,51.4805 C118.715,51.76725 118.36675,51.9805 117.957,52.11975 C117.547,52.25925 117.088,52.32875 116.58,52.32875 L116.58,52.32875 Z" id="Fill-16" fill-opacity="0.350000024"></path>
                    <path d="M121.92775,43.98075 L122.87475,43.98075 L122.87475,45.64075 C122.98925,45.3785 123.13275,45.1365 123.30475,44.91525 C123.477,44.69375 123.67375,44.5035 123.895,44.3435 C124.11625,44.1835 124.358,44.06275 124.6205,43.98075 C124.88275,43.899 125.1655,43.862 125.46875,43.87 L125.46875,44.89075 L125.395,44.89075 C125.05075,44.89075 124.725,44.95225 124.4175,45.075 C124.11025,45.198 123.84175,45.38225 123.61225,45.62825 C123.38275,45.87425 123.20225,46.17975 123.07125,46.54425 C122.94,46.909 122.87475,47.329 122.87475,47.8045 L122.87475,50.33725 L121.92775,50.33725 L121.92775,43.98075" id="Fill-17" fill-opacity="0.350000024"></path>
                    <path d="M129.83325,49.6365 C130.1775,49.6365 130.493,49.57075 130.78025,49.43975 C131.067,49.3085 131.31275,49.13225 131.518,48.911 C131.7225,48.68975 131.8825,48.4315 131.9975,48.1365 C132.112,47.84125 132.1695,47.526 132.1695,47.18975 L132.1695,47.165 C132.1695,46.82075 132.11,46.49925 131.991,46.2 C131.87225,45.901 131.70625,45.63875 131.49325,45.413 C131.28,45.18775 131.03025,45.0095 130.74325,44.8785 C130.45625,44.74725 130.145,44.68175 129.809,44.68175 C129.46475,44.68175 129.149,44.74725 128.86225,44.8785 C128.575,45.0095 128.3315,45.18575 128.13075,45.407 C127.92975,45.62825 127.772,45.88875 127.65725,46.18775 C127.54225,46.487 127.48525,46.8045 127.48525,47.14075 L127.48525,47.165 C127.48525,47.50925 127.5445,47.831 127.6635,48.13025 C127.782,48.4295 127.94625,48.68975 128.15525,48.911 C128.36425,49.13225 128.612,49.3085 128.899,49.43975 C129.186,49.57075 129.49725,49.6365 129.83325,49.6365 L129.83325,49.6365 Z M129.809,50.4845 C129.33325,50.4845 128.895,50.3965 128.49325,50.2205 C128.09175,50.04425 127.74325,49.80675 127.44825,49.50725 C127.15325,49.20825 126.92375,48.85975 126.76,48.46225 C126.59575,48.06475 126.51375,47.64075 126.51375,47.18975 L126.51375,47.165 C126.51375,46.71425 126.59575,46.288 126.76,45.8865 C126.92375,45.48475 127.15325,45.1325 127.44825,44.829 C127.74325,44.526 128.09375,44.28625 128.4995,44.10975 C128.90525,43.93375 129.34975,43.8455 129.83325,43.8455 C130.30875,43.8455 130.7495,43.93375 131.15525,44.10975 C131.561,44.28625 131.91125,44.524 132.2065,44.823 C132.50125,45.12225 132.73075,45.4705 132.895,45.868 C133.05875,46.26575 133.14075,46.69 133.14075,47.14075 L133.14075,47.165 C133.14075,47.616 133.0565,48.04225 132.88875,48.44375 C132.7205,48.8455 132.48925,49.198 132.194,49.50125 C131.899,49.8045 131.5465,50.04425 131.1365,50.2205 C130.72675,50.3965 130.284,50.4845 129.809,50.4845 L129.809,50.4845 Z" id="Fill-18" fill-opacity="0.350000024"></path>
                    <path d="M137.18575,50.4725 C136.8005,50.4725 136.45825,50.411 136.159,50.288 C135.85975,50.165 135.60575,49.991 135.39675,49.7655 C135.18775,49.54 135.028,49.27175 134.91725,48.96025 C134.80675,48.64875 134.75125,48.3045 134.75125,47.9275 L134.75125,43.98075 L135.698,43.98075 L135.698,47.68575 C135.698,48.27475 135.8495,48.74075 136.153,49.08425 C136.45625,49.42775 136.8905,49.59925 137.45625,49.59925 C137.72675,49.59925 137.97875,49.5525 138.21225,49.4585 C138.446,49.36425 138.6465,49.2295 138.81475,49.0535 C138.9825,48.87775 139.11575,48.66725 139.21425,48.422 C139.3125,48.1765 139.362,47.90675 139.362,47.612 L139.362,43.98075 L140.29625,43.98075 L140.29625,50.33725 L139.362,50.33725 L139.362,49.23075 C139.1485,49.575 138.87,49.868 138.52575,50.1095 C138.1815,50.35125 137.73475,50.4725 137.18575,50.4725" id="Fill-19" fill-opacity="0.350000024"></path>
                    <path d="M145.63225,49.624 C145.93525,49.624 146.22425,49.56875 146.499,49.458 C146.77325,49.3475 147.011,49.1875 147.212,48.9785 C147.41275,48.7695 147.57275,48.5135 147.6915,48.21025 C147.81025,47.907 147.86975,47.56275 147.86975,47.1775 L147.86975,47.15275 C147.86975,46.776 147.81025,46.43575 147.6915,46.13225 C147.57275,45.82925 147.4105,45.571 147.206,45.358 C147.00075,45.14475 146.76325,44.981 146.49275,44.866 C146.22225,44.75125 145.93525,44.69375 145.63225,44.69375 C145.337,44.69375 145.052,44.7535 144.77775,44.872 C144.50275,44.991 144.257,45.15925 144.04,45.37625 C143.82275,45.5935 143.6505,45.85175 143.5235,46.151 C143.39625,46.45025 143.333,46.78 143.333,47.14075 L143.333,47.165 C143.333,47.534 143.39625,47.87 143.5235,48.17325 C143.6505,48.4765 143.82275,48.73475 144.04,48.94775 C144.257,49.16125 144.50275,49.32725 144.77775,49.44575 C145.052,49.56475 145.337,49.624 145.63225,49.624 L145.63225,49.624 Z M142.42325,43.98075 L143.37,43.98075 L143.37,45.2595 C143.50075,45.071 143.6465,44.89075 143.80625,44.7185 C143.96625,44.5465 144.1445,44.397 144.34125,44.26975 C144.538,44.14275 144.757,44.04025 144.999,43.9625 C145.2405,43.8845 145.50925,43.8455 145.80425,43.8455 C146.181,43.8455 146.552,43.9195 146.91675,44.067 C147.2815,44.21425 147.60725,44.4295 147.8945,44.7125 C148.181,44.995 148.41075,45.33925 148.583,45.745 C148.755,46.151 148.841,46.61625 148.841,47.14075 L148.841,47.165 C148.841,47.6815 148.755,48.14475 148.583,48.5545 C148.41075,48.96425 148.18325,49.3105 147.9005,49.59325 C147.61775,49.87625 147.29375,50.09325 146.929,50.24475 C146.56425,50.3965 146.18925,50.4725 145.80425,50.4725 C145.50925,50.4725 145.23875,50.4355 144.99275,50.36175 C144.747,50.288 144.5255,50.18975 144.329,50.06675 C144.13225,49.94375 143.954,49.8005 143.794,49.6365 C143.63425,49.4725 143.49275,49.30025 143.37,49.11975 L143.37,52.30425 L142.42325,52.30425 L142.42325,43.98075 L142.42325,43.98075 Z" id="Fill-20" fill-opacity="0.350000024"></path>
                </g>
            </g>
        </g>
    </g>
</svg>